<?xml version="1.0" encoding="UTF-8" standalone="no" ?>
<!DOCTYPE svg PUBLIC "-//W3C//DTD SVG 1.1//EN" "http://www.w3.org/Graphics/SVG/1.1/DTD/svg11.dtd">
<svg xmlns="http://www.w3.org/2000/svg" xmlns:xlink="http://www.w3.org/1999/xlink" version="1.1" width="512" height="512" viewBox="0 0 512 512" xml:space="preserve">
<desc>Created with Fabric.js 5.3.0</desc>
<defs>
</defs>
<g transform="matrix(1.3781705434 0 0 1.3781705501 256 256)" id="Z2QUpDC6A50BWXOCq95Y2"  >
<path style="stroke: none; stroke-width: 1; stroke-dasharray: none; stroke-linecap: butt; stroke-dashoffset: 0; stroke-linejoin: miter; stroke-miterlimit: 4; fill: rgb(0,196,172); fill-rule: nonzero; opacity: 1;"  transform=" translate(-278.25, -261.71)" d="M 459.0398 255.3967 C 460.71252217245046 303.2974275586603 443.2692910507971 349.90141410591013 410.5474185015189 384.956314227316 C 377.82554595224076 420.01121434872186 332.505437491396 440.64551305048917 284.557 442.3199000000001 C 184.70956139213018 445.80662844661 100.94347588528893 367.7713873353152 97.46020000000001 268.0233000000002 C 95.78747782754954 220.12257244133974 113.23070894920289 173.51858589408988 145.95258149848104 138.46368577268402 C 178.67445404775924 103.40878565127815 223.99456250860402 82.77448694951082 271.943 81.10009999999997 C 371.7904386078699 77.61337155339004 455.5565241147111 155.64861266468492 459.0398 255.39669999999998 Z M 140.19 185.42 C 123.4 215.42 117.5 250.8 122.49 284.58 Q 127.42 317.91 144.91 345.67 C 161.46 371.95 186.01 393.33 214.77 405.51 Q 229.66 411.81 241.68 414.57 Q 255.9 417.84 272.04 418.65 Q 279.69 419.04 287.94 418.38 Q 296.51 417.7 303.76 416.52 C 341.08 410.45 375.14 390.43 399.47 361.76 Q 421.46 335.83 430.82 301.93 Q 435.25 285.88 435.84 263.64 C 436.01 257.29 435.17 252.58 434.91 246.1 C 434.82 243.69 433.94 238.9 433.49 236.07 Q 432.6 230.43 432.16 228.57 Q 419.46 174.76 378.09 140.66 C 351.86 119.03 317.42 105.65 282.75 104.91 Q 267.27 104.58 252.78 106.95 Q 197.41 116.03 160.4 157.37 Q 148.37 170.81 140.19 185.42 Z" stroke-linecap="round" />
</g>
<g transform="matrix(1.3781705434 0 0 1.3781705501 256 256)" id="zRP13IVeF2kdUYqMMyX7H"  >
<path style="stroke: none; stroke-width: 1; stroke-dasharray: none; stroke-linecap: butt; stroke-dashoffset: 0; stroke-linejoin: miter; stroke-miterlimit: 4; fill: rgb(0,196,172); fill-rule: nonzero; opacity: 1;"  transform=" translate(-277.8652484433, -258.527190042)" d="M 293.37 301.49 Q 290.38 303.01 287.4 304.6 Q 253.1 322.94 204.04 350.12 Q 200.61 352.02 198.73 352.23 C 191.82 353.02 185.96 347.54 189.33 340.58 Q 195.93 326.97 233.28 250.06 Q 240.58 235.03 242.95 230.71 Q 246.33 224.55 252.48 221.25 Q 305.28 192.93 356.12 165.24 C 356.1796542629179 165.20692996940616 356.2437414140251 165.18331891373506 356.31 165.17 C 361.95 163.66 367.43 166.22 367.38 172.64 Q 367.36 174.56 365.67 178 Q 355.5 198.63 342.52 226 Q 327.43 257.82 314.02 285.76 Q 311.38 291.24 306.15 294.4 Q 299.87 298.18 293.37 301.49 Z M 294.73 258.38 C 294.73 249.02429633786636 287.14570366213366 241.44 277.79 241.44 C 268.4342963378664 241.44 260.85 249.02429633786636 260.85 258.38 C 260.85 267.73570366213363 268.4342963378664 275.32 277.79 275.32 C 287.14570366213366 275.32 294.73 267.73570366213363 294.73 258.38 Z" stroke-linecap="round" />
</g>
</svg>