<?xml version="1.0" encoding="UTF-8" standalone="no" ?>
<!DOCTYPE svg PUBLIC "-//W3C//DTD SVG 1.1//EN" "http://www.w3.org/Graphics/SVG/1.1/DTD/svg11.dtd">
<svg xmlns="http://www.w3.org/2000/svg" xmlns:xlink="http://www.w3.org/1999/xlink" version="1.1" width="512" height="512" viewBox="0 0 512 512" xml:space="preserve">
<desc>Created with Fabric.js 5.3.0</desc>
<defs>
</defs>
<g transform="matrix(1.4031074852 0 0 1.4031074876 256 256)" id="1zHuoCY8uKSh09utxRuLf"  >
<path style="stroke: none; stroke-width: 1; stroke-dasharray: none; stroke-linecap: butt; stroke-dashoffset: 0; stroke-linejoin: miter; stroke-miterlimit: 4; fill: rgb(0,196,172); fill-rule: nonzero; opacity: 1;"  transform=" translate(-262.5453755349, -753.1159431878)" d="M 303.57 878.3 C 303.38626107537846 878.3054134798567 303.24008915271367 878.4515854025216 303.24 878.63 Q 303.27 902.98 303.21 918.75 C 303.18 925.29 298.48 930.46 291.79 931.14 Q 288.55 931.47 282.01 928.94 Q 244.99 914.63 238.69 912.07 Q 197.82 895.46 157.16 879.86 Q 156.73 879.69 151.55 877.42 C 151.14829605069613 877.2421856886932 150.71501718297418 877.1534829283722 150.28 877.16 Q 144.73 877.18 143.51 876.98 C 137.97 876.11 134.46 869.12 134.45 864.49 Q 134.35 756.6 134.42 588 C 134.42 582.31 137.35 576.87 142.85 575.31 Q 144.17 574.94 151.17 574.94 Q 225.44 574.99 371.75 574.95 Q 379.95 574.95 381.15 575.06 C 381.5151232643246 575.0865699502727 381.87806017915585 575.1605015440347 382.23 575.28 Q 387.11 576.95 389.42 581.23 Q 390.71 583.61 390.7 590.47 Q 390.61 663.86 390.72 864.55 Q 390.72 875.4 381.55 877.89 C 381.3973508844594 877.9298183014815 381.24274668266577 877.9499840669329 381.09 877.95 L 303.57 878.3 Z M 212.62 596.17 C 212.50264565531023 596.1736165349408 212.40361993052804 596.2584101583435 212.381982603078 596.3738092380771 C 212.36034527562794 596.4892083178107 212.42192703477716 596.6041158444506 212.53 596.65 Q 281.56 623.11 283.42 623.76 Q 289.05 625.72 294.58 627.82 Q 300.83 630.19 302.53 635.18 Q 303.22 637.23 303.23 646.38 Q 303.3 772.65 303.26 857.39 C 303.26 857.5438255641069 303.32110696741194 857.6913508335883 303.4298780669118 857.8001219330882 C 303.53864916641163 857.908893032588 303.686174435893 857.97 303.84 857.97 L 367.51 857.97 C 367.797188069912 857.97 368.03 857.737188069912 368.03 857.45 L 368.03 596.79 C 368.03 596.4475834551049 367.7568936973968 596.17 367.42 596.17 L 212.62 596.17 Z M 281.65 907.81 C 281.7450615697094 907.8581473133039 281.85818914545877 907.8540957901918 281.9495629165296 907.7992715275493 C 282.04093668760044 907.7444472649069 282.0977480671696 907.6465354148278 282.1 907.54 L 282.1 645.43 C 282.0999289587519 645.0382065826211 281.8568563741856 644.6875444934108 281.49 644.55 L 158.69 597.89 C 158.52895074556235 597.8267709707271 158.3470009871899 597.8477843918066 158.2046037717466 597.9460585264084 C 158.06220655630332 598.0443326610101 157.9780143034177 598.206994712489 157.98 598.38 L 157.98 858.29 C 157.98100791874094 858.5443319451927 158.13484337240288 858.7731128762796 158.37 858.87 Q 192.3 871.97 227.32 885.9 C 242.94 892.11 264.92 900.34 279.32 906.71 Q 280.66 907.3 281.65 907.81 Z" stroke-linecap="round" />
</g>
<g transform="matrix(0.9765625 0 0 0.9765625 243.7095942042 256.8828679807)" id="cuySO4mkYuN8_ipes-faU"  >
<path style="stroke: none; stroke-width: 1; stroke-dasharray: none; stroke-linecap: butt; stroke-dashoffset: 0; stroke-linejoin: miter; stroke-miterlimit: 4; fill: rgb(0,196,172); fill-rule: nonzero; opacity: 1;"  transform=" translate(-19.06, -18.76)" d="M 0 18.76 C 0 8.399140000000001 8.53345 0 19.06 0 C 29.58655 0 38.12 8.39914 38.12 18.76 C 38.12 29.12086 29.586549999999995 37.52 19.06 37.52 C 8.533449999999998 37.52 0 29.120860000000004 0 18.76 z" stroke-linecap="round" />
</g>
</svg>