<?xml version="1.0" encoding="UTF-8" standalone="no" ?>
<!DOCTYPE svg PUBLIC "-//W3C//DTD SVG 1.1//EN" "http://www.w3.org/Graphics/SVG/1.1/DTD/svg11.dtd">
<svg xmlns="http://www.w3.org/2000/svg" xmlns:xlink="http://www.w3.org/1999/xlink" version="1.1" width="512" height="512" viewBox="0 0 512 512" xml:space="preserve">
<desc>Created with Fabric.js 5.3.0</desc>
<defs>
</defs>
<g transform="matrix(1.4161842825 0 0 1.4161842915 256 256)" id="GqOVK3k3cK-G2wucXWltP"  >
<path style="stroke: none; stroke-width: 1; stroke-dasharray: none; stroke-linecap: butt; stroke-dashoffset: 0; stroke-linejoin: miter; stroke-miterlimit: 4; fill: rgb(0,196,172); fill-rule: nonzero; opacity: 1;"  transform=" translate(-746.3615707773, -725.0514329111)" d="M 699.66 754.56 L 663.59 723.49 C 663.4769752972719 723.3969228465987 663.3563377508622 723.3164978156589 663.23 723.25 L 634.83 708.94 C 634.3678280312746 708.7049039278635 633.8078581897781 708.7848996195057 633.43 709.14 Q 630.55 711.89 627.14 714.1 Q 611.87 724.02 594.62 717.82 Q 585.38 714.49 578.77 706.69 C 569.2 695.4 567.19 679.98 573.34 666.49 Q 580.83 650.08 600.34 645.32 C 604.25 644.36 612.29 644.55 616.82 645.97 C 629.62 649.98 639.44 659.15 643.28 672.02 Q 645.47 679.35 644.41 686.9 C 644.3453569538599 687.3848510449758 644.5948477123865 687.8556642505825 645.03 688.07 L 670.34 700.68 C 670.4058683067191 700.712888940082 670.4777642784483 700.730007028589 670.55 700.73 L 717.17 700.73 C 717.7271239844515 700.7307880692343 718.2336412754024 700.3970363658946 718.46 699.88 L 734.89 661.91 C 734.9756208281011 661.725751871019 735.0199870820333 661.5243973339426 735.02 661.32 L 735.02 632.7 C 735.0197628712498 632.2265292740186 734.7243778654616 631.8034102116735 734.28 631.64 C 719.63 626.31 709.15 613.01 708.97 597.37 Q 708.86 587.55 712.61 579.85 C 718.36 568.05 730.23 559.16 743.91 558.82 Q 748.41 558.71 752.2 559.16 Q 757.61 559.8 763.31 562.92 Q 777.68 570.77 782.34 585.37 C 788.32 604.11 778.68 623.01 761.02 630.69 C 760.17 631.06 759.18 631.06 758.49 631.41 C 758.1521659631385 631.5879401067635 757.9404886583194 631.9381698292825 757.94 632.32 L 757.94 661 C 757.939935630698 661.6926652894151 758.0794064822437 662.3764126347978 758.35 663.01 L 774.11 700.36 C 774.2070525179171 700.5908753128296 774.435830162435 700.7407641144102 774.69 700.74 L 822.39 700.74 C 822.8905423360432 700.7400725947966 823.3853686849483 700.6308695384865 823.84 700.42 Q 827.48 698.72 843.7 689.93 Q 846.59 688.36 847.49 687.42 C 847.7159091929952 687.1888832279121 847.8131606772855 686.8597243580067 847.75 686.54 Q 846.92 681.87 847.29 679 Q 850.39 655.02 871.83 646.74 Q 875.98 645.14 881.47 644.89 Q 889.06 644.55 891.35 645.13 Q 914.71 651.1 921.43 673.03 C 926.69 690.18 917.27 709.11 901.02 716.71 Q 890.87 721.46 879.9 719.77 Q 868.14 717.95 858.83 708.25 C 858.5728071562095 707.9855169111269 858.1614628366755 707.947350943335 857.86 708.16 Q 855.4 709.9 853.3 711.06 Q 841.67 717.45 832.05 722.1 C 830.39 722.9 829.44 723.77 827.96 724.98 Q 821.3 730.39 797.81 750.82 Q 796.08 752.32 794.12 753.57 C 793.7084216995622 753.8313594172992 793.51088179168 754.3272249003502 793.63 754.8 L 802.77 791.73 C 802.8365195805515 792.0026625997743 802.8767051986277 792.2772643232952 802.89 792.55 Q 803.01 796.37 804.23 797.67 Q 814.79 808.98 825.49 821 C 825.6908833836047 821.2266935858468 826.0291351224415 821.2732031999368 826.29 821.11 Q 832.43 817.15 839 816.09 C 843.39 815.38 850.37 815.6 855.24 817.23 C 874.48 823.67 886.49 843.11 881.36 863.15 C 878.02 876.22 867.84 886.01 854.93 889.87 C 837.78 894.99 819.32 886.28 811.26 871.3 Q 802.76 855.52 810.62 837.82 C 810.6986549304243 837.6455133292301 810.6628041572337 837.4423589478173 810.53 837.31 L 793.17 818.98 C 791.1244921027808 816.8215333820435 788.8171400392438 814.920570837703 786.3 813.32 L 746.67 788.13 C 746.4257983077981 787.9765491316322 746.1121744097401 787.9765491316322 745.86 788.13 L 703.66 815.08 C 703.5539884797361 815.146297907619 703.4562186524189 815.2305822415132 703.37 815.33 Q 694.94 824.59 684.95 834.21 Q 683.73 835.38 682.11 836.59 C 681.6968177105774 836.8978512878853 681.5586501544702 837.4547084079536 681.78 837.92 C 686.3 847.55 686.79 858.61 682.5 868.46 Q 676.6 882.01 662 888.5 Q 656.57 890.92 649.01 891.16 Q 641.85 891.39 635.9 889.16 C 620.75 883.47 610.13 869.37 610.67 852.96 Q 610.98 843.88 614.23 837.26 C 620.76 823.96 634.06 814.77 648.97 815.83 Q 658.11 816.49 665.78 821.06 C 665.9247810968525 821.1488435895346 666.1164766926762 821.119672520605 666.24 820.99 L 687.13 799.13 C 687.9368155484594 798.2837384492284 688.5149073661269 797.2479906092409 688.81 796.12 L 699.76 754.89 C 699.7901740965644 754.7662021879762 699.7515383596452 754.6387042561428 699.66 754.56 Z M 748.4335 610.9946 C 752.2225796439383 610.4957577297381 755.6548653673555 608.4860245089767 757.9752913265067 605.4075199723615 C 760.295717285658 602.3290154357462 761.3142056632223 598.4339154480683 760.8067 594.5791 C 759.7498953652429 586.5518873973615 752.4968256636049 580.886638321201 744.6065 581.9254 C 740.8174203560617 582.4242422702619 737.3851346326445 584.4339754910233 735.0647086734932 587.5124800276385 C 732.7442827143419 590.5909845642539 731.7257943367777 594.4860845519318 732.2333 598.3409 C 733.2901046347571 606.3681126026385 740.543174336395 612.033361678799 748.4335 610.9946 Z M 621.8199 682.1696 C 621.7923660481309 674.2830476309224 615.3051172291318 667.9122941253324 607.3302 667.9401 C 603.5004944009481 667.9534592229975 599.8328918598027 669.4707599963988 597.1342241596191 672.1582130192368 C 594.4355564594355 674.8456660420748 592.926884737718 678.4831288261961 592.9401 682.2704 C 592.9676339518691 690.1569523690775 599.454882770868 696.5277058746676 607.4298 696.4999 C 611.2595055990519 696.4865407770026 614.9271081401973 694.9692400036013 617.6257758403809 692.2817869807632 C 620.3244435405645 689.5943339579252 621.8331152622821 685.956871173804 621.8199 682.1696 Z M 899.23 682.32 C 899.23 678.5380128548882 897.7276114563892 674.9109260569488 895.0533426997202 672.2366573002798 C 892.3790739430513 669.5623885436108 888.7519871451119 668.06 884.97 668.06 C 881.1880128548881 668.06 877.5609260569488 669.5623885436108 874.8866573002798 672.2366573002798 C 872.2123885436108 674.9109260569488 870.71 678.5380128548882 870.71 682.32 C 870.71 690.1955805325872 877.0944194674129 696.58 884.97 696.58 C 892.8455805325872 696.58 899.23 690.1955805325872 899.23 682.32 Z M 799.07 721 Q 778.3 720.7 778.29 720.7 Q 767.99 720.5 765.56 719.67 C 760.04 717.8 756.62 713.83 754.56 708.47 C 751.41 700.3 747.99 692.72 746.22 687.58 C 746.1964545615076 687.505614548181 746.1273652378508 687.4571012304336 746.0481973413338 687.4593631703342 C 745.9690294448168 687.4616251102346 745.8973685410463 687.5141598630513 745.87 687.59 Q 743.54 694.52 737.14 709.67 Q 734.81 715.17 732.61 716.9 C 728.99 719.73 724.7 720.62 720.24 720.7 Q 713.27 720.82 693.4 721 C 693.2525300369622 721.0046688497558 693.1197153197976 721.0928003215306 693.0596223039603 721.2258634280274 C 692.999529288123 721.3589265345244 693.0230885480742 721.5127178608651 693.12 721.62 C 693.82 722.41 695.17 722.87 696.45 723.93 Q 711.84 736.65 717.5 741.77 Q 721.4 745.3 721.92 750.91 C 721.9531053434649 751.2738365120649 721.9226580053735 751.6425876067283 721.83 752 L 713.11 784.84 C 713.0948227562988 784.8849442530762 713.1116746065936 784.9329530058088 713.1520843214341 784.9598928157025 C 713.1924940362745 784.9868326255961 713.2477196948882 784.9868755454693 713.29 784.96 Q 721.73 778.99 740.34 766.58 Q 743.13 764.72 747.28 764.83 Q 749.57 764.89 752.13 766.65 Q 769.05 778.29 779.7 786.09 C 779.768007593891 786.1381328676106 779.8587303490285 786.1390629602092 779.9277104643494 786.0923344949919 C 779.9966905796701 786.0456060297745 780.0294757808886 785.9610092570638 780.01 785.88 L 771.13 751.87 C 771.1102145466973 751.8040138080961 771.1034187919994 751.7360562611171 771.11 751.67 Q 771.12 745.55 774.56 742.32 Q 781.62 735.71 799.24 721.49 C 799.3255553543177 721.4148667845792 799.357092727943 721.2954068863845 799.319771636964 721.187834330033 C 799.2824505459848 721.0802617736813 799.1837044034238 721.0060022790616 799.07 721 Z M 662.72 853.4 C 662.72 849.5782303814121 661.2018079303343 845.912990496538 658.4994087168982 843.2105912831018 C 655.7970095034619 840.5081920696656 652.1317696185878 838.99 648.31 838.99 C 640.3515767549383 838.99 633.9 845.4415767549383 633.9 853.4 C 633.9 861.3584232450617 640.3515767549383 867.81 648.31 867.81 C 652.1317696185878 867.81 655.7970095034619 866.2918079303344 658.4994087168982 863.5894087168981 C 661.2018079303343 860.887009503462 662.72 857.2217696185878 662.72 853.4 Z M 859.175 853.8332 C 859.2752553501301 850.0047812384663 857.8295048316843 846.292787078411 855.1557978448174 843.5138158892765 C 852.4820908579503 840.7348447001419 848.7994441608187 839.1165359591948 844.918 839.0149 C 841.0365439396144 838.9132553774468 837.2742368874807 840.3366188115419 834.4587502915364 842.9718640055437 C 831.643263695592 845.6071091995456 830.0052296766089 849.2383686054709 829.905 853.0668 C 829.8047446498698 856.8952187615337 831.2504951683156 860.6072129215889 833.9242021551827 863.3861841107234 C 836.5979091420497 866.165155299858 840.2805558391813 867.7834640408051 844.162 867.8851 C 848.0434560603857 867.986744622553 851.8057631125193 866.563381188458 854.6212497084637 863.9281359944562 C 857.4367363044079 861.2928908004544 859.074770323391 857.6616313945291 859.175 853.8332 Z" stroke-linecap="round" />
</g>
</svg>