<?xml version="1.0" encoding="UTF-8" standalone="no" ?>
<!DOCTYPE svg PUBLIC "-//W3C//DTD SVG 1.1//EN" "http://www.w3.org/Graphics/SVG/1.1/DTD/svg11.dtd">
<svg xmlns="http://www.w3.org/2000/svg" xmlns:xlink="http://www.w3.org/1999/xlink" version="1.1" width="512" height="512" viewBox="0 0 512 512" xml:space="preserve">
<desc>Created with Fabric.js 5.3.0</desc>
<defs>
</defs>
<g transform="matrix(1.388408722 0 0 1.3884087129 256 165.997878146)" id="AJaXWwQKXGPtQDnO8mJ9u"  >
<path style="stroke: none; stroke-width: 1; stroke-dasharray: none; stroke-linecap: butt; stroke-dashoffset: 0; stroke-linejoin: miter; stroke-miterlimit: 4; fill: rgb(0,196,172); fill-rule: nonzero; opacity: 1;"  transform=" translate(-746.1711517076, -184.2626917499)" d="M 816.53 183.91 Q 816.67 211.62 816.7 218.4 Q 816.76 236.36 815.18 243.51 C 802.63 299.92 732.27 318.4 693.69 275.07 Q 676.25 255.48 676.09 228.5 Q 676.06 224.5 675.86 184.62 Q 675.66 144.73 675.64 140.74 Q 675.53 113.76 692.77 93.99 C 730.91 50.27 801.45 68.04 814.58 124.32 Q 816.23 131.45 816.35 149.41 Q 816.39 156.2 816.53 183.91 Z" stroke-linecap="round" />
</g>
<g transform="matrix(1.388408722 0 0 1.3884087129 256 335.183810264)" id="_QQZOxzcoIwM9nDpEmnQG"  >
<path style="stroke: none; stroke-width: 1; stroke-dasharray: none; stroke-linecap: butt; stroke-dashoffset: 0; stroke-linejoin: miter; stroke-miterlimit: 4; fill: rgb(0,196,172); fill-rule: nonzero; opacity: 1;"  transform=" translate(-746.4433813501, -320.46126999)" d="M 758.22 404.48 C 758.22 404.77271091741034 758.4572890825897 405.01 758.75 405.01 Q 786.41 405.07 793.24 404.96 Q 799.63 404.86 803.57 406.33 C 811.23 409.19 817.07 415.3 819.11 423.55 C 821.32 432.5 816.53 440.35 807.56 442.83 C 807.2747094845595 442.9096468538526 806.9786465935904 442.95001906625754 806.68 442.95 Q 749.38 442.95 691.62 442.99 Q 684.88 443 681.85 441.52 C 673.56 437.47 672.28 428.11 675.23 419.88 C 677.67 413.04 684.13 408.02 690.91 405.96 Q 694.06 405 699.69 405.01 Q 729.67 405.05 734.22 405.02 C 734.5182337649086 405.02 734.76 404.77823376490863 734.76 404.48 L 734.76 348.12 C 734.7600151821524 347.8848665004387 734.6659297068594 347.6595061466938 734.498728535526 347.49418364020676 C 734.3315273641924 347.3288611337197 734.1051183178989 347.23732802791835 733.87 347.24 Q 731.04 347.27 728.28 346.89 Q 694.36 342.28 668.01 320.24 Q 635.7 293.23 626.38 252.74 C 623.2 238.92 622.61 224.87 623.06 209.76 Q 623.32 200.78 631.42 198.42 C 636.89 196.83 642.26 199.24 645.07 203.88 Q 646.29 205.9 646.22 209.69 Q 646.05 218.47 646.14 223.68 Q 646.29 231.48 648.53 243.28 C 653.38 268.85 668.35 292.49 689.95 307.33 Q 707.04 319.07 726.95 323.01 Q 746.16 326.82 766 322.55 C 794.15 316.48 818.28 299.66 832.61 274.61 Q 843.71 255.19 845.91 231.75 Q 846.41 226.37 846.4 211.64 Q 846.4 207.44 847.15 205.45 C 851.65 193.51 869.9 196.54 869.96 209.53 Q 869.96 209.82 869.93 222.25 Q 869.88 242.45 863.36 262.61 Q 850.83 301.3 817.51 325.49 Q 794.31 342.34 766.57 346.58 Q 763 347.13 759.25 347.17 C 758.6795736861378 347.1754893958837 758.2200309425774 347.63503213944415 758.22 348.2 L 758.22 404.48 Z" stroke-linecap="round" />
</g>
</svg>